<?xml version="1.0" encoding="utf-8" standalone="no"?>
<!DOCTYPE svg PUBLIC "-//W3C//DTD SVG 1.1//EN"
  "http://www.w3.org/Graphics/SVG/1.1/DTD/svg11.dtd">
<svg xmlns:xlink="http://www.w3.org/1999/xlink" width="432pt" height="432pt" viewBox="0 0 432 432" xmlns="http://www.w3.org/2000/svg" version="1.1">
 <metadata>
  <rdf:RDF xmlns:dc="http://purl.org/dc/elements/1.1/" xmlns:cc="http://creativecommons.org/ns#" xmlns:rdf="http://www.w3.org/1999/02/22-rdf-syntax-ns#">
   <cc:Work>
    <dc:type rdf:resource="http://purl.org/dc/dcmitype/StillImage"/>
    <dc:date>2025-06-30T22:54:04.276342</dc:date>
    <dc:format>image/svg+xml</dc:format>
    <dc:creator>
     <cc:Agent>
      <dc:title>Matplotlib v3.10.3, https://matplotlib.org/</dc:title>
     </cc:Agent>
    </dc:creator>
   </cc:Work>
  </rdf:RDF>
 </metadata>
 <defs>
  <style type="text/css">*{stroke-linejoin: round; stroke-linecap: butt}</style>
 </defs>
 <g id="figure_1">
  <g id="patch_1">
   <path d="M 0 432 
L 432 432 
L 432 0 
L 0 0 
z
" style="fill: #ffffff"/>
  </g>
  <g id="axes_1">
   <g id="patch_2">
    <path d="M 77.94 411.12 
L 419.04 411.12 
L 419.04 18 
L 77.94 18 
z
" style="fill: #ffffff"/>
   </g>
   <g id="matplotlib.axis_1"/>
   <g id="matplotlib.axis_2">
    <g id="ytick_1">
     <g id="line2d_1">
      <defs>
       <path id="m85cbdb6f0c" d="M 0 0 
L -6 0 
" style="stroke: #262626; stroke-width: 1.25"/>
      </defs>
      <g>
       <use xlink:href="#m85cbdb6f0c" x="77.94" y="411.12" style="fill: #262626; stroke: #262626; stroke-width: 1.25"/>
      </g>
     </g>
     <g id="text_1">
      <!-- 0 -->
      <g style="fill: #262626" transform="translate(61.099562 415.844156) scale(0.132 -0.132)">
       <defs>
        <path id="ArialMT-30" d="M 266 2259 
Q 266 3072 433 3567 
Q 600 4063 929 4331 
Q 1259 4600 1759 4600 
Q 2128 4600 2406 4451 
Q 2684 4303 2865 4023 
Q 3047 3744 3150 3342 
Q 3253 2941 3253 2259 
Q 3253 1453 3087 958 
Q 2922 463 2592 192 
Q 2263 -78 1759 -78 
Q 1097 -78 719 397 
Q 266 969 266 2259 
z
M 844 2259 
Q 844 1131 1108 757 
Q 1372 384 1759 384 
Q 2147 384 2411 759 
Q 2675 1134 2675 2259 
Q 2675 3391 2411 3762 
Q 2147 4134 1753 4134 
Q 1366 4134 1134 3806 
Q 844 3388 844 2259 
z
" transform="scale(0.015625)"/>
       </defs>
       <use xlink:href="#ArialMT-30"/>
      </g>
     </g>
    </g>
    <g id="ytick_2">
     <g id="line2d_2">
      <g>
       <use xlink:href="#m85cbdb6f0c" x="77.94" y="332.496" style="fill: #262626; stroke: #262626; stroke-width: 1.25"/>
      </g>
     </g>
     <g id="text_2">
      <!-- 20 -->
      <g style="fill: #262626" transform="translate(53.759125 337.220156) scale(0.132 -0.132)">
       <defs>
        <path id="ArialMT-32" d="M 3222 541 
L 3222 0 
L 194 0 
Q 188 203 259 391 
Q 375 700 629 1000 
Q 884 1300 1366 1694 
Q 2113 2306 2375 2664 
Q 2638 3022 2638 3341 
Q 2638 3675 2398 3904 
Q 2159 4134 1775 4134 
Q 1369 4134 1125 3890 
Q 881 3647 878 3216 
L 300 3275 
Q 359 3922 746 4261 
Q 1134 4600 1788 4600 
Q 2447 4600 2831 4234 
Q 3216 3869 3216 3328 
Q 3216 3053 3103 2787 
Q 2991 2522 2730 2228 
Q 2469 1934 1863 1422 
Q 1356 997 1212 845 
Q 1069 694 975 541 
L 3222 541 
z
" transform="scale(0.015625)"/>
       </defs>
       <use xlink:href="#ArialMT-32"/>
       <use xlink:href="#ArialMT-30" transform="translate(55.615234 0)"/>
      </g>
     </g>
    </g>
    <g id="ytick_3">
     <g id="line2d_3">
      <g>
       <use xlink:href="#m85cbdb6f0c" x="77.94" y="253.872" style="fill: #262626; stroke: #262626; stroke-width: 1.25"/>
      </g>
     </g>
     <g id="text_3">
      <!-- 40 -->
      <g style="fill: #262626" transform="translate(53.759125 258.596156) scale(0.132 -0.132)">
       <defs>
        <path id="ArialMT-34" d="M 2069 0 
L 2069 1097 
L 81 1097 
L 81 1613 
L 2172 4581 
L 2631 4581 
L 2631 1613 
L 3250 1613 
L 3250 1097 
L 2631 1097 
L 2631 0 
L 2069 0 
z
M 2069 1613 
L 2069 3678 
L 634 1613 
L 2069 1613 
z
" transform="scale(0.015625)"/>
       </defs>
       <use xlink:href="#ArialMT-34"/>
       <use xlink:href="#ArialMT-30" transform="translate(55.615234 0)"/>
      </g>
     </g>
    </g>
    <g id="ytick_4">
     <g id="line2d_4">
      <g>
       <use xlink:href="#m85cbdb6f0c" x="77.94" y="175.248" style="fill: #262626; stroke: #262626; stroke-width: 1.25"/>
      </g>
     </g>
     <g id="text_4">
      <!-- 60 -->
      <g style="fill: #262626" transform="translate(53.759125 179.972156) scale(0.132 -0.132)">
       <defs>
        <path id="ArialMT-36" d="M 3184 3459 
L 2625 3416 
Q 2550 3747 2413 3897 
Q 2184 4138 1850 4138 
Q 1581 4138 1378 3988 
Q 1113 3794 959 3422 
Q 806 3050 800 2363 
Q 1003 2672 1297 2822 
Q 1591 2972 1913 2972 
Q 2475 2972 2870 2558 
Q 3266 2144 3266 1488 
Q 3266 1056 3080 686 
Q 2894 316 2569 119 
Q 2244 -78 1831 -78 
Q 1128 -78 684 439 
Q 241 956 241 2144 
Q 241 3472 731 4075 
Q 1159 4600 1884 4600 
Q 2425 4600 2770 4297 
Q 3116 3994 3184 3459 
z
M 888 1484 
Q 888 1194 1011 928 
Q 1134 663 1356 523 
Q 1578 384 1822 384 
Q 2178 384 2434 671 
Q 2691 959 2691 1453 
Q 2691 1928 2437 2201 
Q 2184 2475 1800 2475 
Q 1419 2475 1153 2201 
Q 888 1928 888 1484 
z
" transform="scale(0.015625)"/>
       </defs>
       <use xlink:href="#ArialMT-36"/>
       <use xlink:href="#ArialMT-30" transform="translate(55.615234 0)"/>
      </g>
     </g>
    </g>
    <g id="ytick_5">
     <g id="line2d_5">
      <g>
       <use xlink:href="#m85cbdb6f0c" x="77.94" y="96.624" style="fill: #262626; stroke: #262626; stroke-width: 1.25"/>
      </g>
     </g>
     <g id="text_5">
      <!-- 80 -->
      <g style="fill: #262626" transform="translate(53.759125 101.348156) scale(0.132 -0.132)">
       <defs>
        <path id="ArialMT-38" d="M 1131 2484 
Q 781 2613 612 2850 
Q 444 3088 444 3419 
Q 444 3919 803 4259 
Q 1163 4600 1759 4600 
Q 2359 4600 2725 4251 
Q 3091 3903 3091 3403 
Q 3091 3084 2923 2848 
Q 2756 2613 2416 2484 
Q 2838 2347 3058 2040 
Q 3278 1734 3278 1309 
Q 3278 722 2862 322 
Q 2447 -78 1769 -78 
Q 1091 -78 675 323 
Q 259 725 259 1325 
Q 259 1772 486 2073 
Q 713 2375 1131 2484 
z
M 1019 3438 
Q 1019 3113 1228 2906 
Q 1438 2700 1772 2700 
Q 2097 2700 2305 2904 
Q 2513 3109 2513 3406 
Q 2513 3716 2298 3927 
Q 2084 4138 1766 4138 
Q 1444 4138 1231 3931 
Q 1019 3725 1019 3438 
z
M 838 1322 
Q 838 1081 952 856 
Q 1066 631 1291 507 
Q 1516 384 1775 384 
Q 2178 384 2440 643 
Q 2703 903 2703 1303 
Q 2703 1709 2433 1975 
Q 2163 2241 1756 2241 
Q 1359 2241 1098 1978 
Q 838 1716 838 1322 
z
" transform="scale(0.015625)"/>
       </defs>
       <use xlink:href="#ArialMT-38"/>
       <use xlink:href="#ArialMT-30" transform="translate(55.615234 0)"/>
      </g>
     </g>
    </g>
    <g id="ytick_6">
     <g id="line2d_6">
      <g>
       <use xlink:href="#m85cbdb6f0c" x="77.94" y="18" style="fill: #262626; stroke: #262626; stroke-width: 1.25"/>
      </g>
     </g>
     <g id="text_6">
      <!-- 100 -->
      <g style="fill: #262626" transform="translate(46.418687 22.724156) scale(0.132 -0.132)">
       <defs>
        <path id="ArialMT-31" d="M 2384 0 
L 1822 0 
L 1822 3584 
Q 1619 3391 1289 3197 
Q 959 3003 697 2906 
L 697 3450 
Q 1169 3672 1522 3987 
Q 1875 4303 2022 4600 
L 2384 4600 
L 2384 0 
z
" transform="scale(0.015625)"/>
       </defs>
       <use xlink:href="#ArialMT-31"/>
       <use xlink:href="#ArialMT-30" transform="translate(55.615234 0)"/>
       <use xlink:href="#ArialMT-30" transform="translate(111.230469 0)"/>
      </g>
     </g>
    </g>
    <g id="text_7">
     <!-- KNN Accuracy per Seed (%) -->
     <g style="fill: #262626" transform="translate(24.157237 305.391375) rotate(-90) scale(0.144 -0.144)">
      <defs>
       <path id="ArialMT-4b" d="M 469 0 
L 469 4581 
L 1075 4581 
L 1075 2309 
L 3350 4581 
L 4172 4581 
L 2250 2725 
L 4256 0 
L 3456 0 
L 1825 2319 
L 1075 1588 
L 1075 0 
L 469 0 
z
" transform="scale(0.015625)"/>
       <path id="ArialMT-4e" d="M 488 0 
L 488 4581 
L 1109 4581 
L 3516 984 
L 3516 4581 
L 4097 4581 
L 4097 0 
L 3475 0 
L 1069 3600 
L 1069 0 
L 488 0 
z
" transform="scale(0.015625)"/>
       <path id="ArialMT-20" transform="scale(0.015625)"/>
       <path id="ArialMT-41" d="M -9 0 
L 1750 4581 
L 2403 4581 
L 4278 0 
L 3588 0 
L 3053 1388 
L 1138 1388 
L 634 0 
L -9 0 
z
M 1313 1881 
L 2866 1881 
L 2388 3150 
Q 2169 3728 2063 4100 
Q 1975 3659 1816 3225 
L 1313 1881 
z
" transform="scale(0.015625)"/>
       <path id="ArialMT-63" d="M 2588 1216 
L 3141 1144 
Q 3050 572 2676 248 
Q 2303 -75 1759 -75 
Q 1078 -75 664 370 
Q 250 816 250 1647 
Q 250 2184 428 2587 
Q 606 2991 970 3192 
Q 1334 3394 1763 3394 
Q 2303 3394 2647 3120 
Q 2991 2847 3088 2344 
L 2541 2259 
Q 2463 2594 2264 2762 
Q 2066 2931 1784 2931 
Q 1359 2931 1093 2626 
Q 828 2322 828 1663 
Q 828 994 1084 691 
Q 1341 388 1753 388 
Q 2084 388 2306 591 
Q 2528 794 2588 1216 
z
" transform="scale(0.015625)"/>
       <path id="ArialMT-75" d="M 2597 0 
L 2597 488 
Q 2209 -75 1544 -75 
Q 1250 -75 995 37 
Q 741 150 617 320 
Q 494 491 444 738 
Q 409 903 409 1263 
L 409 3319 
L 972 3319 
L 972 1478 
Q 972 1038 1006 884 
Q 1059 663 1231 536 
Q 1403 409 1656 409 
Q 1909 409 2131 539 
Q 2353 669 2445 892 
Q 2538 1116 2538 1541 
L 2538 3319 
L 3100 3319 
L 3100 0 
L 2597 0 
z
" transform="scale(0.015625)"/>
       <path id="ArialMT-72" d="M 416 0 
L 416 3319 
L 922 3319 
L 922 2816 
Q 1116 3169 1280 3281 
Q 1444 3394 1641 3394 
Q 1925 3394 2219 3213 
L 2025 2691 
Q 1819 2813 1613 2813 
Q 1428 2813 1281 2702 
Q 1134 2591 1072 2394 
Q 978 2094 978 1738 
L 978 0 
L 416 0 
z
" transform="scale(0.015625)"/>
       <path id="ArialMT-61" d="M 2588 409 
Q 2275 144 1986 34 
Q 1697 -75 1366 -75 
Q 819 -75 525 192 
Q 231 459 231 875 
Q 231 1119 342 1320 
Q 453 1522 633 1644 
Q 813 1766 1038 1828 
Q 1203 1872 1538 1913 
Q 2219 1994 2541 2106 
Q 2544 2222 2544 2253 
Q 2544 2597 2384 2738 
Q 2169 2928 1744 2928 
Q 1347 2928 1158 2789 
Q 969 2650 878 2297 
L 328 2372 
Q 403 2725 575 2942 
Q 747 3159 1072 3276 
Q 1397 3394 1825 3394 
Q 2250 3394 2515 3294 
Q 2781 3194 2906 3042 
Q 3031 2891 3081 2659 
Q 3109 2516 3109 2141 
L 3109 1391 
Q 3109 606 3145 398 
Q 3181 191 3288 0 
L 2700 0 
Q 2613 175 2588 409 
z
M 2541 1666 
Q 2234 1541 1622 1453 
Q 1275 1403 1131 1340 
Q 988 1278 909 1158 
Q 831 1038 831 891 
Q 831 666 1001 516 
Q 1172 366 1500 366 
Q 1825 366 2078 508 
Q 2331 650 2450 897 
Q 2541 1088 2541 1459 
L 2541 1666 
z
" transform="scale(0.015625)"/>
       <path id="ArialMT-79" d="M 397 -1278 
L 334 -750 
Q 519 -800 656 -800 
Q 844 -800 956 -737 
Q 1069 -675 1141 -563 
Q 1194 -478 1313 -144 
Q 1328 -97 1363 -6 
L 103 3319 
L 709 3319 
L 1400 1397 
Q 1534 1031 1641 628 
Q 1738 1016 1872 1384 
L 2581 3319 
L 3144 3319 
L 1881 -56 
Q 1678 -603 1566 -809 
Q 1416 -1088 1222 -1217 
Q 1028 -1347 759 -1347 
Q 597 -1347 397 -1278 
z
" transform="scale(0.015625)"/>
       <path id="ArialMT-70" d="M 422 -1272 
L 422 3319 
L 934 3319 
L 934 2888 
Q 1116 3141 1344 3267 
Q 1572 3394 1897 3394 
Q 2322 3394 2647 3175 
Q 2972 2956 3137 2557 
Q 3303 2159 3303 1684 
Q 3303 1175 3120 767 
Q 2938 359 2589 142 
Q 2241 -75 1856 -75 
Q 1575 -75 1351 44 
Q 1128 163 984 344 
L 984 -1272 
L 422 -1272 
z
M 931 1641 
Q 931 1000 1190 694 
Q 1450 388 1819 388 
Q 2194 388 2461 705 
Q 2728 1022 2728 1688 
Q 2728 2322 2467 2637 
Q 2206 2953 1844 2953 
Q 1484 2953 1207 2617 
Q 931 2281 931 1641 
z
" transform="scale(0.015625)"/>
       <path id="ArialMT-65" d="M 2694 1069 
L 3275 997 
Q 3138 488 2766 206 
Q 2394 -75 1816 -75 
Q 1088 -75 661 373 
Q 234 822 234 1631 
Q 234 2469 665 2931 
Q 1097 3394 1784 3394 
Q 2450 3394 2872 2941 
Q 3294 2488 3294 1666 
Q 3294 1616 3291 1516 
L 816 1516 
Q 847 969 1125 678 
Q 1403 388 1819 388 
Q 2128 388 2347 550 
Q 2566 713 2694 1069 
z
M 847 1978 
L 2700 1978 
Q 2663 2397 2488 2606 
Q 2219 2931 1791 2931 
Q 1403 2931 1139 2672 
Q 875 2413 847 1978 
z
" transform="scale(0.015625)"/>
       <path id="ArialMT-53" d="M 288 1472 
L 859 1522 
Q 900 1178 1048 958 
Q 1197 738 1509 602 
Q 1822 466 2213 466 
Q 2559 466 2825 569 
Q 3091 672 3220 851 
Q 3350 1031 3350 1244 
Q 3350 1459 3225 1620 
Q 3100 1781 2813 1891 
Q 2628 1963 1997 2114 
Q 1366 2266 1113 2400 
Q 784 2572 623 2826 
Q 463 3081 463 3397 
Q 463 3744 659 4045 
Q 856 4347 1234 4503 
Q 1613 4659 2075 4659 
Q 2584 4659 2973 4495 
Q 3363 4331 3572 4012 
Q 3781 3694 3797 3291 
L 3216 3247 
Q 3169 3681 2898 3903 
Q 2628 4125 2100 4125 
Q 1550 4125 1298 3923 
Q 1047 3722 1047 3438 
Q 1047 3191 1225 3031 
Q 1400 2872 2139 2705 
Q 2878 2538 3153 2413 
Q 3553 2228 3743 1945 
Q 3934 1663 3934 1294 
Q 3934 928 3725 604 
Q 3516 281 3123 101 
Q 2731 -78 2241 -78 
Q 1619 -78 1198 103 
Q 778 284 539 648 
Q 300 1013 288 1472 
z
" transform="scale(0.015625)"/>
       <path id="ArialMT-64" d="M 2575 0 
L 2575 419 
Q 2259 -75 1647 -75 
Q 1250 -75 917 144 
Q 584 363 401 755 
Q 219 1147 219 1656 
Q 219 2153 384 2558 
Q 550 2963 881 3178 
Q 1213 3394 1622 3394 
Q 1922 3394 2156 3267 
Q 2391 3141 2538 2938 
L 2538 4581 
L 3097 4581 
L 3097 0 
L 2575 0 
z
M 797 1656 
Q 797 1019 1065 703 
Q 1334 388 1700 388 
Q 2069 388 2326 689 
Q 2584 991 2584 1609 
Q 2584 2291 2321 2609 
Q 2059 2928 1675 2928 
Q 1300 2928 1048 2622 
Q 797 2316 797 1656 
z
" transform="scale(0.015625)"/>
       <path id="ArialMT-28" d="M 1497 -1347 
Q 1031 -759 709 28 
Q 388 816 388 1659 
Q 388 2403 628 3084 
Q 909 3875 1497 4659 
L 1900 4659 
Q 1522 4009 1400 3731 
Q 1209 3300 1100 2831 
Q 966 2247 966 1656 
Q 966 153 1900 -1347 
L 1497 -1347 
z
" transform="scale(0.015625)"/>
       <path id="ArialMT-25" d="M 372 3481 
Q 372 3972 619 4315 
Q 866 4659 1334 4659 
Q 1766 4659 2048 4351 
Q 2331 4044 2331 3447 
Q 2331 2866 2045 2552 
Q 1759 2238 1341 2238 
Q 925 2238 648 2547 
Q 372 2856 372 3481 
z
M 1350 4272 
Q 1141 4272 1002 4090 
Q 863 3909 863 3425 
Q 863 2984 1003 2804 
Q 1144 2625 1350 2625 
Q 1563 2625 1702 2806 
Q 1841 2988 1841 3469 
Q 1841 3913 1700 4092 
Q 1559 4272 1350 4272 
z
M 1353 -169 
L 3859 4659 
L 4316 4659 
L 1819 -169 
L 1353 -169 
z
M 3334 1075 
Q 3334 1569 3581 1911 
Q 3828 2253 4300 2253 
Q 4731 2253 5014 1945 
Q 5297 1638 5297 1041 
Q 5297 459 5011 145 
Q 4725 -169 4303 -169 
Q 3888 -169 3611 142 
Q 3334 453 3334 1075 
z
M 4316 1866 
Q 4103 1866 3964 1684 
Q 3825 1503 3825 1019 
Q 3825 581 3965 400 
Q 4106 219 4313 219 
Q 4528 219 4667 400 
Q 4806 581 4806 1063 
Q 4806 1506 4665 1686 
Q 4525 1866 4316 1866 
z
" transform="scale(0.015625)"/>
       <path id="ArialMT-29" d="M 791 -1347 
L 388 -1347 
Q 1322 153 1322 1656 
Q 1322 2244 1188 2822 
Q 1081 3291 891 3722 
Q 769 4003 388 4659 
L 791 4659 
Q 1378 3875 1659 3084 
Q 1900 2403 1900 1659 
Q 1900 816 1576 28 
Q 1253 -759 791 -1347 
z
" transform="scale(0.015625)"/>
      </defs>
      <use xlink:href="#ArialMT-4b"/>
      <use xlink:href="#ArialMT-4e" transform="translate(66.699219 0)"/>
      <use xlink:href="#ArialMT-4e" transform="translate(138.916016 0)"/>
      <use xlink:href="#ArialMT-20" transform="translate(211.132812 0)"/>
      <use xlink:href="#ArialMT-41" transform="translate(233.416016 0)"/>
      <use xlink:href="#ArialMT-63" transform="translate(300.115234 0)"/>
      <use xlink:href="#ArialMT-63" transform="translate(350.115234 0)"/>
      <use xlink:href="#ArialMT-75" transform="translate(400.115234 0)"/>
      <use xlink:href="#ArialMT-72" transform="translate(455.730469 0)"/>
      <use xlink:href="#ArialMT-61" transform="translate(489.03125 0)"/>
      <use xlink:href="#ArialMT-63" transform="translate(544.646484 0)"/>
      <use xlink:href="#ArialMT-79" transform="translate(594.646484 0)"/>
      <use xlink:href="#ArialMT-20" transform="translate(644.646484 0)"/>
      <use xlink:href="#ArialMT-70" transform="translate(672.429688 0)"/>
      <use xlink:href="#ArialMT-65" transform="translate(728.044922 0)"/>
      <use xlink:href="#ArialMT-72" transform="translate(783.660156 0)"/>
      <use xlink:href="#ArialMT-20" transform="translate(816.960938 0)"/>
      <use xlink:href="#ArialMT-53" transform="translate(844.744141 0)"/>
      <use xlink:href="#ArialMT-65" transform="translate(911.443359 0)"/>
      <use xlink:href="#ArialMT-65" transform="translate(967.058594 0)"/>
      <use xlink:href="#ArialMT-64" transform="translate(1022.673828 0)"/>
      <use xlink:href="#ArialMT-20" transform="translate(1078.289062 0)"/>
      <use xlink:href="#ArialMT-28" transform="translate(1106.072266 0)"/>
      <use xlink:href="#ArialMT-25" transform="translate(1139.373047 0)"/>
      <use xlink:href="#ArialMT-29" transform="translate(1228.289062 0)"/>
     </g>
     <!--  -->
     <g style="fill: #262626" transform="translate(39.556687 214.56) rotate(-90) scale(0.144 -0.144)"/>
    </g>
   </g>
   <g id="patch_3">
    <path d="M 163.215 140.340249 
L 333.765 140.340249 
L 333.765 124.028216 
L 163.215 124.028216 
L 163.215 140.340249 
z
" clip-path="url(#p031c5bb292)" style="fill: #5875a4; stroke: #4c4c4c; stroke-linejoin: miter"/>
   </g>
   <g id="line2d_7">
    <path d="M 248.49 140.340249 
L 248.49 161.545892 
" clip-path="url(#p031c5bb292)" style="fill: none; stroke: #4c4c4c"/>
   </g>
   <g id="line2d_8">
    <path d="M 248.49 124.028216 
L 248.49 104.453776 
" clip-path="url(#p031c5bb292)" style="fill: none; stroke: #4c4c4c"/>
   </g>
   <g id="line2d_9">
    <path d="M 205.8525 161.545892 
L 291.1275 161.545892 
" clip-path="url(#p031c5bb292)" style="fill: none; stroke: #4c4c4c; stroke-linecap: round"/>
   </g>
   <g id="line2d_10">
    <path d="M 205.8525 104.453776 
L 291.1275 104.453776 
" clip-path="url(#p031c5bb292)" style="fill: none; stroke: #4c4c4c; stroke-linecap: round"/>
   </g>
   <g id="line2d_11"/>
   <g id="line2d_12">
    <path d="M 163.215 132.184232 
L 333.765 132.184232 
" clip-path="url(#p031c5bb292)" style="fill: none; stroke: #4c4c4c"/>
   </g>
   <g id="patch_4">
    <path d="M 77.94 411.12 
L 77.94 18 
" style="fill: none; stroke: #262626; stroke-width: 1.25; stroke-linejoin: miter; stroke-linecap: square"/>
   </g>
   <g id="patch_5">
    <path d="M 419.04 411.12 
L 419.04 18 
" style="fill: none; stroke: #262626; stroke-width: 1.25; stroke-linejoin: miter; stroke-linecap: square"/>
   </g>
   <g id="patch_6">
    <path d="M 77.94 411.12 
L 419.04 411.12 
" style="fill: none; stroke: #262626; stroke-width: 1.25; stroke-linejoin: miter; stroke-linecap: square"/>
   </g>
   <g id="patch_7">
    <path d="M 77.94 18 
L 419.04 18 
" style="fill: none; stroke: #262626; stroke-width: 1.25; stroke-linejoin: miter; stroke-linecap: square"/>
   </g>
   <g id="PathCollection_1">
    <defs>
     <path id="m3df169c0aa" d="M 0 2.5 
C 0.663008 2.5 1.29895 2.236584 1.767767 1.767767 
C 2.236584 1.29895 2.5 0.663008 2.5 0 
C 2.5 -0.663008 2.236584 -1.29895 1.767767 -1.767767 
C 1.29895 -2.236584 0.663008 -2.5 0 -2.5 
C -0.663008 -2.5 -1.29895 -2.236584 -1.767767 -1.767767 
C -2.236584 -1.29895 -2.5 -0.663008 -2.5 0 
C -2.5 0.663008 -2.236584 1.29895 -1.767767 1.767767 
C -1.29895 2.236584 -0.663008 2.5 0 2.5 
z
"/>
    </defs>
    <g clip-path="url(#p031c5bb292)">
     <use xlink:href="#m3df169c0aa" x="228.011078" y="114.240996" style="fill-opacity: 0.4"/>
     <use xlink:href="#m3df169c0aa" x="239.499991" y="151.758672" style="fill-opacity: 0.4"/>
     <use xlink:href="#m3df169c0aa" x="248.953016" y="146.865062" style="fill-opacity: 0.4"/>
     <use xlink:href="#m3df169c0aa" x="223.970726" y="133.815436" style="fill-opacity: 0.4"/>
     <use xlink:href="#m3df169c0aa" x="217.844215" y="114.240996" style="fill-opacity: 0.4"/>
     <use xlink:href="#m3df169c0aa" x="231.186685" y="145.233859" style="fill-opacity: 0.4"/>
     <use xlink:href="#m3df169c0aa" x="258.188863" y="132.184232" style="fill-opacity: 0.4"/>
     <use xlink:href="#m3df169c0aa" x="255.317526" y="137.077842" style="fill-opacity: 0.4"/>
     <use xlink:href="#m3df169c0aa" x="267.605062" y="151.758672" style="fill-opacity: 0.4"/>
     <use xlink:href="#m3df169c0aa" x="262.015108" y="122.397012" style="fill-opacity: 0.4"/>
     <use xlink:href="#m3df169c0aa" x="215.622541" y="130.553029" style="fill-opacity: 0.4"/>
     <use xlink:href="#m3df169c0aa" x="269.330069" y="161.545892" style="fill-opacity: 0.4"/>
     <use xlink:href="#m3df169c0aa" x="244.549826" y="114.240996" style="fill-opacity: 0.4"/>
     <use xlink:href="#m3df169c0aa" x="251.668299" y="114.240996" style="fill-opacity: 0.4"/>
     <use xlink:href="#m3df169c0aa" x="258.383817" y="133.815436" style="fill-opacity: 0.4"/>
     <use xlink:href="#m3df169c0aa" x="253.464503" y="135.446639" style="fill-opacity: 0.4"/>
     <use xlink:href="#m3df169c0aa" x="222.839552" y="133.815436" style="fill-opacity: 0.4"/>
     <use xlink:href="#m3df169c0aa" x="230.190858" y="110.978589" style="fill-opacity: 0.4"/>
     <use xlink:href="#m3df169c0aa" x="250.975716" y="115.872199" style="fill-opacity: 0.4"/>
     <use xlink:href="#m3df169c0aa" x="257.442173" y="125.659419" style="fill-opacity: 0.4"/>
     <use xlink:href="#m3df169c0aa" x="226.417205" y="127.290622" style="fill-opacity: 0.4"/>
     <use xlink:href="#m3df169c0aa" x="251.197249" y="127.290622" style="fill-opacity: 0.4"/>
     <use xlink:href="#m3df169c0aa" x="252.137291" y="119.134606" style="fill-opacity: 0.4"/>
     <use xlink:href="#m3df169c0aa" x="234.91781" y="130.553029" style="fill-opacity: 0.4"/>
     <use xlink:href="#m3df169c0aa" x="270.775227" y="120.765809" style="fill-opacity: 0.4"/>
     <use xlink:href="#m3df169c0aa" x="279.626806" y="124.028216" style="fill-opacity: 0.4"/>
     <use xlink:href="#m3df169c0aa" x="232.380879" y="124.028216" style="fill-opacity: 0.4"/>
     <use xlink:href="#m3df169c0aa" x="224.800447" y="135.446639" style="fill-opacity: 0.4"/>
     <use xlink:href="#m3df169c0aa" x="227.852793" y="143.602656" style="fill-opacity: 0.4"/>
     <use xlink:href="#m3df169c0aa" x="241.938488" y="135.446639" style="fill-opacity: 0.4"/>
     <use xlink:href="#m3df169c0aa" x="254.636894" y="125.659419" style="fill-opacity: 0.4"/>
     <use xlink:href="#m3df169c0aa" x="248.428509" y="104.453776" style="fill-opacity: 0.4"/>
     <use xlink:href="#m3df169c0aa" x="259.393521" y="138.709046" style="fill-opacity: 0.4"/>
     <use xlink:href="#m3df169c0aa" x="275.893294" y="127.290622" style="fill-opacity: 0.4"/>
     <use xlink:href="#m3df169c0aa" x="234.308041" y="127.290622" style="fill-opacity: 0.4"/>
     <use xlink:href="#m3df169c0aa" x="258.693717" y="125.659419" style="fill-opacity: 0.4"/>
     <use xlink:href="#m3df169c0aa" x="215.346597" y="125.659419" style="fill-opacity: 0.4"/>
     <use xlink:href="#m3df169c0aa" x="256.565786" y="146.865062" style="fill-opacity: 0.4"/>
     <use xlink:href="#m3df169c0aa" x="276.880822" y="133.815436" style="fill-opacity: 0.4"/>
     <use xlink:href="#m3df169c0aa" x="279.040315" y="120.765809" style="fill-opacity: 0.4"/>
     <use xlink:href="#m3df169c0aa" x="257.296538" y="140.340249" style="fill-opacity: 0.4"/>
     <use xlink:href="#m3df169c0aa" x="255.324466" y="114.240996" style="fill-opacity: 0.4"/>
     <use xlink:href="#m3df169c0aa" x="254.733994" y="137.077842" style="fill-opacity: 0.4"/>
     <use xlink:href="#m3df169c0aa" x="227.252383" y="124.028216" style="fill-opacity: 0.4"/>
     <use xlink:href="#m3df169c0aa" x="277.445265" y="133.815436" style="fill-opacity: 0.4"/>
     <use xlink:href="#m3df169c0aa" x="244.688497" y="140.340249" style="fill-opacity: 0.4"/>
     <use xlink:href="#m3df169c0aa" x="224.88352" y="122.397012" style="fill-opacity: 0.4"/>
     <use xlink:href="#m3df169c0aa" x="215.500878" y="128.921826" style="fill-opacity: 0.4"/>
     <use xlink:href="#m3df169c0aa" x="251.877593" y="132.184232" style="fill-opacity: 0.4"/>
     <use xlink:href="#m3df169c0aa" x="272.651363" y="130.553029" style="fill-opacity: 0.4"/>
     <use xlink:href="#m3df169c0aa" x="238.999153" y="132.184232" style="fill-opacity: 0.4"/>
     <use xlink:href="#m3df169c0aa" x="282.312039" y="117.503402" style="fill-opacity: 0.4"/>
     <use xlink:href="#m3df169c0aa" x="221.018751" y="158.283485" style="fill-opacity: 0.4"/>
     <use xlink:href="#m3df169c0aa" x="277.06243" y="132.184232" style="fill-opacity: 0.4"/>
     <use xlink:href="#m3df169c0aa" x="277.230778" y="146.865062" style="fill-opacity: 0.4"/>
     <use xlink:href="#m3df169c0aa" x="274.683887" y="133.815436" style="fill-opacity: 0.4"/>
     <use xlink:href="#m3df169c0aa" x="266.191772" y="133.815436" style="fill-opacity: 0.4"/>
     <use xlink:href="#m3df169c0aa" x="223.088059" y="122.397012" style="fill-opacity: 0.4"/>
     <use xlink:href="#m3df169c0aa" x="237.71065" y="140.340249" style="fill-opacity: 0.4"/>
     <use xlink:href="#m3df169c0aa" x="238.252344" y="151.758672" style="fill-opacity: 0.4"/>
     <use xlink:href="#m3df169c0aa" x="256.517999" y="140.340249" style="fill-opacity: 0.4"/>
     <use xlink:href="#m3df169c0aa" x="262.086029" y="124.028216" style="fill-opacity: 0.4"/>
     <use xlink:href="#m3df169c0aa" x="274.564789" y="141.971452" style="fill-opacity: 0.4"/>
     <use xlink:href="#m3df169c0aa" x="223.770504" y="143.602656" style="fill-opacity: 0.4"/>
     <use xlink:href="#m3df169c0aa" x="225.358192" y="128.921826" style="fill-opacity: 0.4"/>
     <use xlink:href="#m3df169c0aa" x="265.211233" y="120.765809" style="fill-opacity: 0.4"/>
     <use xlink:href="#m3df169c0aa" x="244.838733" y="145.233859" style="fill-opacity: 0.4"/>
     <use xlink:href="#m3df169c0aa" x="226.973597" y="133.815436" style="fill-opacity: 0.4"/>
     <use xlink:href="#m3df169c0aa" x="257.84483" y="141.971452" style="fill-opacity: 0.4"/>
     <use xlink:href="#m3df169c0aa" x="244.277036" y="122.397012" style="fill-opacity: 0.4"/>
     <use xlink:href="#m3df169c0aa" x="226.458564" y="133.815436" style="fill-opacity: 0.4"/>
     <use xlink:href="#m3df169c0aa" x="269.690129" y="109.347386" style="fill-opacity: 0.4"/>
     <use xlink:href="#m3df169c0aa" x="229.444416" y="140.340249" style="fill-opacity: 0.4"/>
     <use xlink:href="#m3df169c0aa" x="276.734488" y="140.340249" style="fill-opacity: 0.4"/>
     <use xlink:href="#m3df169c0aa" x="244.098808" y="120.765809" style="fill-opacity: 0.4"/>
     <use xlink:href="#m3df169c0aa" x="259.689495" y="141.971452" style="fill-opacity: 0.4"/>
     <use xlink:href="#m3df169c0aa" x="225.280057" y="128.921826" style="fill-opacity: 0.4"/>
     <use xlink:href="#m3df169c0aa" x="242.308145" y="122.397012" style="fill-opacity: 0.4"/>
     <use xlink:href="#m3df169c0aa" x="261.927831" y="150.127469" style="fill-opacity: 0.4"/>
     <use xlink:href="#m3df169c0aa" x="220.217084" y="130.553029" style="fill-opacity: 0.4"/>
     <use xlink:href="#m3df169c0aa" x="252.844632" y="130.553029" style="fill-opacity: 0.4"/>
     <use xlink:href="#m3df169c0aa" x="275.674802" y="135.446639" style="fill-opacity: 0.4"/>
     <use xlink:href="#m3df169c0aa" x="225.853202" y="146.865062" style="fill-opacity: 0.4"/>
     <use xlink:href="#m3df169c0aa" x="271.506632" y="124.028216" style="fill-opacity: 0.4"/>
     <use xlink:href="#m3df169c0aa" x="231.737818" y="125.659419" style="fill-opacity: 0.4"/>
     <use xlink:href="#m3df169c0aa" x="240.388176" y="128.921826" style="fill-opacity: 0.4"/>
     <use xlink:href="#m3df169c0aa" x="260.47629" y="115.872199" style="fill-opacity: 0.4"/>
     <use xlink:href="#m3df169c0aa" x="258.819387" y="128.921826" style="fill-opacity: 0.4"/>
     <use xlink:href="#m3df169c0aa" x="228.380506" y="127.290622" style="fill-opacity: 0.4"/>
     <use xlink:href="#m3df169c0aa" x="260.16068" y="132.184232" style="fill-opacity: 0.4"/>
     <use xlink:href="#m3df169c0aa" x="221.689184" y="135.446639" style="fill-opacity: 0.4"/>
     <use xlink:href="#m3df169c0aa" x="270.139727" y="141.971452" style="fill-opacity: 0.4"/>
     <use xlink:href="#m3df169c0aa" x="262.048089" y="133.815436" style="fill-opacity: 0.4"/>
     <use xlink:href="#m3df169c0aa" x="237.440603" y="133.815436" style="fill-opacity: 0.4"/>
     <use xlink:href="#m3df169c0aa" x="246.893272" y="145.233859" style="fill-opacity: 0.4"/>
     <use xlink:href="#m3df169c0aa" x="281.341788" y="128.921826" style="fill-opacity: 0.4"/>
     <use xlink:href="#m3df169c0aa" x="219.596201" y="128.921826" style="fill-opacity: 0.4"/>
     <use xlink:href="#m3df169c0aa" x="224.322395" y="133.815436" style="fill-opacity: 0.4"/>
     <use xlink:href="#m3df169c0aa" x="239.139084" y="141.971452" style="fill-opacity: 0.4"/>
     <use xlink:href="#m3df169c0aa" x="269.89772" y="127.290622" style="fill-opacity: 0.4"/>
     <use xlink:href="#m3df169c0aa" x="238.832224" y="133.815436" style="fill-opacity: 0.4"/>
    </g>
   </g>
   <g id="text_8">
    <g id="patch_8">
     <path d="M 265.545 112.979195 
L 362.586094 112.979195 
Q 365.286094 112.979195 365.286094 110.279195 
L 365.286094 101.833257 
Q 365.286094 99.133257 362.586094 99.133257 
L 265.545 99.133257 
Q 262.845 99.133257 262.845 101.833257 
L 262.845 110.279195 
Q 262.845 112.979195 265.545 112.979195 
z
" style="fill: #ffd700; stroke: #000000; stroke-linejoin: miter"/>
    </g>
    <!-- Best seed: 31 (78.01%) -->
    <g transform="translate(265.545 108.384976) scale(0.09 -0.09)">
     <defs>
      <path id="Arial-BoldMT-42" d="M 469 4581 
L 2300 4581 
Q 2844 4581 3111 4536 
Q 3378 4491 3589 4347 
Q 3800 4203 3940 3964 
Q 4081 3725 4081 3428 
Q 4081 3106 3907 2837 
Q 3734 2569 3438 2434 
Q 3856 2313 4081 2019 
Q 4306 1725 4306 1328 
Q 4306 1016 4161 720 
Q 4016 425 3764 248 
Q 3513 72 3144 31 
Q 2913 6 2028 0 
L 469 0 
L 469 4581 
z
M 1394 3819 
L 1394 2759 
L 2000 2759 
Q 2541 2759 2672 2775 
Q 2909 2803 3045 2939 
Q 3181 3075 3181 3297 
Q 3181 3509 3064 3642 
Q 2947 3775 2716 3803 
Q 2578 3819 1925 3819 
L 1394 3819 
z
M 1394 1997 
L 1394 772 
L 2250 772 
Q 2750 772 2884 800 
Q 3091 838 3220 983 
Q 3350 1128 3350 1372 
Q 3350 1578 3250 1722 
Q 3150 1866 2961 1931 
Q 2772 1997 2141 1997 
L 1394 1997 
z
" transform="scale(0.015625)"/>
      <path id="Arial-BoldMT-65" d="M 2381 1056 
L 3256 909 
Q 3088 428 2723 176 
Q 2359 -75 1813 -75 
Q 947 -75 531 491 
Q 203 944 203 1634 
Q 203 2459 634 2926 
Q 1066 3394 1725 3394 
Q 2466 3394 2894 2905 
Q 3322 2416 3303 1406 
L 1103 1406 
Q 1113 1016 1316 798 
Q 1519 581 1822 581 
Q 2028 581 2168 693 
Q 2309 806 2381 1056 
z
M 2431 1944 
Q 2422 2325 2234 2523 
Q 2047 2722 1778 2722 
Q 1491 2722 1303 2513 
Q 1116 2303 1119 1944 
L 2431 1944 
z
" transform="scale(0.015625)"/>
      <path id="Arial-BoldMT-73" d="M 150 947 
L 1031 1081 
Q 1088 825 1259 692 
Q 1431 559 1741 559 
Q 2081 559 2253 684 
Q 2369 772 2369 919 
Q 2369 1019 2306 1084 
Q 2241 1147 2013 1200 
Q 950 1434 666 1628 
Q 272 1897 272 2375 
Q 272 2806 612 3100 
Q 953 3394 1669 3394 
Q 2350 3394 2681 3172 
Q 3013 2950 3138 2516 
L 2309 2363 
Q 2256 2556 2107 2659 
Q 1959 2763 1684 2763 
Q 1338 2763 1188 2666 
Q 1088 2597 1088 2488 
Q 1088 2394 1175 2328 
Q 1294 2241 1995 2081 
Q 2697 1922 2975 1691 
Q 3250 1456 3250 1038 
Q 3250 581 2869 253 
Q 2488 -75 1741 -75 
Q 1063 -75 667 200 
Q 272 475 150 947 
z
" transform="scale(0.015625)"/>
      <path id="Arial-BoldMT-74" d="M 1981 3319 
L 1981 2619 
L 1381 2619 
L 1381 1281 
Q 1381 875 1398 808 
Q 1416 741 1477 697 
Q 1538 653 1625 653 
Q 1747 653 1978 738 
L 2053 56 
Q 1747 -75 1359 -75 
Q 1122 -75 931 4 
Q 741 84 652 211 
Q 563 338 528 553 
Q 500 706 500 1172 
L 500 2619 
L 97 2619 
L 97 3319 
L 500 3319 
L 500 3978 
L 1381 4491 
L 1381 3319 
L 1981 3319 
z
" transform="scale(0.015625)"/>
      <path id="Arial-BoldMT-20" transform="scale(0.015625)"/>
      <path id="Arial-BoldMT-64" d="M 3503 0 
L 2688 0 
L 2688 488 
Q 2484 203 2207 64 
Q 1931 -75 1650 -75 
Q 1078 -75 670 386 
Q 263 847 263 1672 
Q 263 2516 659 2955 
Q 1056 3394 1663 3394 
Q 2219 3394 2625 2931 
L 2625 4581 
L 3503 4581 
L 3503 0 
z
M 1159 1731 
Q 1159 1200 1306 963 
Q 1519 619 1900 619 
Q 2203 619 2415 876 
Q 2628 1134 2628 1647 
Q 2628 2219 2422 2470 
Q 2216 2722 1894 2722 
Q 1581 2722 1370 2473 
Q 1159 2225 1159 1731 
z
" transform="scale(0.015625)"/>
      <path id="Arial-BoldMT-3a" d="M 628 2441 
L 628 3319 
L 1506 3319 
L 1506 2441 
L 628 2441 
z
M 628 0 
L 628 878 
L 1506 878 
L 1506 0 
L 628 0 
z
" transform="scale(0.015625)"/>
      <path id="Arial-BoldMT-33" d="M 241 1216 
L 1091 1319 
Q 1131 994 1309 822 
Q 1488 650 1741 650 
Q 2013 650 2198 856 
Q 2384 1063 2384 1413 
Q 2384 1744 2206 1937 
Q 2028 2131 1772 2131 
Q 1603 2131 1369 2066 
L 1466 2781 
Q 1822 2772 2009 2936 
Q 2197 3100 2197 3372 
Q 2197 3603 2059 3740 
Q 1922 3878 1694 3878 
Q 1469 3878 1309 3722 
Q 1150 3566 1116 3266 
L 306 3403 
Q 391 3819 561 4067 
Q 731 4316 1036 4458 
Q 1341 4600 1719 4600 
Q 2366 4600 2756 4188 
Q 3078 3850 3078 3425 
Q 3078 2822 2419 2463 
Q 2813 2378 3048 2084 
Q 3284 1791 3284 1375 
Q 3284 772 2843 347 
Q 2403 -78 1747 -78 
Q 1125 -78 715 280 
Q 306 638 241 1216 
z
" transform="scale(0.015625)"/>
      <path id="Arial-BoldMT-31" d="M 2519 0 
L 1641 0 
L 1641 3309 
Q 1159 2859 506 2644 
L 506 3441 
Q 850 3553 1253 3867 
Q 1656 4181 1806 4600 
L 2519 4600 
L 2519 0 
z
" transform="scale(0.015625)"/>
      <path id="Arial-BoldMT-28" d="M 1916 -1347 
L 1313 -1347 
Q 834 -625 584 153 
Q 334 931 334 1659 
Q 334 2563 644 3369 
Q 913 4069 1325 4659 
L 1925 4659 
Q 1497 3713 1336 3048 
Q 1175 2384 1175 1641 
Q 1175 1128 1270 590 
Q 1366 53 1531 -431 
Q 1641 -750 1916 -1347 
z
" transform="scale(0.015625)"/>
      <path id="Arial-BoldMT-37" d="M 272 3703 
L 272 4519 
L 3275 4519 
L 3275 3881 
Q 2903 3516 2518 2831 
Q 2134 2147 1932 1376 
Q 1731 606 1734 0 
L 888 0 
Q 909 950 1279 1937 
Q 1650 2925 2269 3703 
L 272 3703 
z
" transform="scale(0.015625)"/>
      <path id="Arial-BoldMT-38" d="M 1025 2472 
Q 684 2616 529 2867 
Q 375 3119 375 3419 
Q 375 3931 733 4265 
Q 1091 4600 1750 4600 
Q 2403 4600 2764 4265 
Q 3125 3931 3125 3419 
Q 3125 3100 2959 2851 
Q 2794 2603 2494 2472 
Q 2875 2319 3073 2025 
Q 3272 1731 3272 1347 
Q 3272 713 2867 316 
Q 2463 -81 1791 -81 
Q 1166 -81 750 247 
Q 259 634 259 1309 
Q 259 1681 443 1992 
Q 628 2303 1025 2472 
z
M 1206 3356 
Q 1206 3094 1354 2947 
Q 1503 2800 1750 2800 
Q 2000 2800 2150 2948 
Q 2300 3097 2300 3359 
Q 2300 3606 2151 3754 
Q 2003 3903 1759 3903 
Q 1506 3903 1356 3753 
Q 1206 3603 1206 3356 
z
M 1125 1394 
Q 1125 1031 1311 828 
Q 1497 625 1775 625 
Q 2047 625 2225 820 
Q 2403 1016 2403 1384 
Q 2403 1706 2222 1901 
Q 2041 2097 1763 2097 
Q 1441 2097 1283 1875 
Q 1125 1653 1125 1394 
z
" transform="scale(0.015625)"/>
      <path id="Arial-BoldMT-2e" d="M 459 0 
L 459 878 
L 1338 878 
L 1338 0 
L 459 0 
z
" transform="scale(0.015625)"/>
      <path id="Arial-BoldMT-30" d="M 1756 4600 
Q 2422 4600 2797 4125 
Q 3244 3563 3244 2259 
Q 3244 959 2794 391 
Q 2422 -78 1756 -78 
Q 1088 -78 678 436 
Q 269 950 269 2269 
Q 269 3563 719 4131 
Q 1091 4600 1756 4600 
z
M 1756 3872 
Q 1597 3872 1472 3770 
Q 1347 3669 1278 3406 
Q 1188 3066 1188 2259 
Q 1188 1453 1269 1151 
Q 1350 850 1473 750 
Q 1597 650 1756 650 
Q 1916 650 2041 751 
Q 2166 853 2234 1116 
Q 2325 1453 2325 2259 
Q 2325 3066 2244 3367 
Q 2163 3669 2039 3770 
Q 1916 3872 1756 3872 
z
" transform="scale(0.015625)"/>
      <path id="Arial-BoldMT-25" d="M 278 3450 
Q 278 4066 548 4362 
Q 819 4659 1281 4659 
Q 1759 4659 2029 4364 
Q 2300 4069 2300 3450 
Q 2300 2834 2029 2537 
Q 1759 2241 1297 2241 
Q 819 2241 548 2536 
Q 278 2831 278 3450 
z
M 963 3456 
Q 963 3009 1066 2856 
Q 1144 2744 1281 2744 
Q 1422 2744 1500 2856 
Q 1600 3009 1600 3456 
Q 1600 3903 1500 4053 
Q 1422 4169 1281 4169 
Q 1144 4169 1066 4056 
Q 963 3903 963 3456 
z
M 1950 -175 
L 1300 -175 
L 3741 4659 
L 4372 4659 
L 1950 -175 
z
M 3369 1028 
Q 3369 1644 3639 1941 
Q 3909 2238 4378 2238 
Q 4850 2238 5120 1941 
Q 5391 1644 5391 1028 
Q 5391 409 5120 112 
Q 4850 -184 4388 -184 
Q 3909 -184 3639 112 
Q 3369 409 3369 1028 
z
M 4053 1031 
Q 4053 584 4156 434 
Q 4234 319 4372 319 
Q 4513 319 4588 431 
Q 4691 584 4691 1031 
Q 4691 1478 4591 1631 
Q 4513 1744 4372 1744 
Q 4231 1744 4156 1631 
Q 4053 1478 4053 1031 
z
" transform="scale(0.015625)"/>
      <path id="Arial-BoldMT-29" d="M 216 -1347 
Q 475 -791 581 -494 
Q 688 -197 778 190 
Q 869 578 912 926 
Q 956 1275 956 1641 
Q 956 2384 797 3048 
Q 638 3713 209 4659 
L 806 4659 
Q 1278 3988 1539 3234 
Q 1800 2481 1800 1706 
Q 1800 1053 1594 306 
Q 1359 -531 822 -1347 
L 216 -1347 
z
" transform="scale(0.015625)"/>
     </defs>
     <use xlink:href="#Arial-BoldMT-42"/>
     <use xlink:href="#Arial-BoldMT-65" transform="translate(72.216797 0)"/>
     <use xlink:href="#Arial-BoldMT-73" transform="translate(127.832031 0)"/>
     <use xlink:href="#Arial-BoldMT-74" transform="translate(183.447266 0)"/>
     <use xlink:href="#Arial-BoldMT-20" transform="translate(216.748047 0)"/>
     <use xlink:href="#Arial-BoldMT-73" transform="translate(244.53125 0)"/>
     <use xlink:href="#Arial-BoldMT-65" transform="translate(300.146484 0)"/>
     <use xlink:href="#Arial-BoldMT-65" transform="translate(355.761719 0)"/>
     <use xlink:href="#Arial-BoldMT-64" transform="translate(411.376953 0)"/>
     <use xlink:href="#Arial-BoldMT-3a" transform="translate(472.460938 0)"/>
     <use xlink:href="#Arial-BoldMT-20" transform="translate(505.761719 0)"/>
     <use xlink:href="#Arial-BoldMT-33" transform="translate(533.544922 0)"/>
     <use xlink:href="#Arial-BoldMT-31" transform="translate(589.160156 0)"/>
     <use xlink:href="#Arial-BoldMT-20" transform="translate(644.775391 0)"/>
     <use xlink:href="#Arial-BoldMT-28" transform="translate(672.558594 0)"/>
     <use xlink:href="#Arial-BoldMT-37" transform="translate(705.859375 0)"/>
     <use xlink:href="#Arial-BoldMT-38" transform="translate(761.474609 0)"/>
     <use xlink:href="#Arial-BoldMT-2e" transform="translate(817.089844 0)"/>
     <use xlink:href="#Arial-BoldMT-30" transform="translate(844.873047 0)"/>
     <use xlink:href="#Arial-BoldMT-31" transform="translate(900.488281 0)"/>
     <use xlink:href="#Arial-BoldMT-25" transform="translate(956.103516 0)"/>
     <use xlink:href="#Arial-BoldMT-29" transform="translate(1045.019531 0)"/>
    </g>
   </g>
  </g>
 </g>
 <defs>
  <clipPath id="p031c5bb292">
   <rect x="77.94" y="18" width="341.1" height="393.12"/>
  </clipPath>
 </defs>
</svg>
